<svg width="250" height="106" viewBox="0 0 250 106" fill="none" xmlns="http://www.w3.org/2000/svg">
<path d="M113.73 69.3139V49.3764C113.73 46.3338 111.905 44.4921 108.439 44.4921C106.667 44.4921 104.921 44.8391 103.942 45.2128V69.3139H96.376V40.5687C99.5506 39.2876 103.387 38.3801 108.334 38.3801C117.249 38.3801 121.35 42.09 121.35 48.6024V69.3139H113.73Z" fill="#FDFDFC"/>
<path d="M172.698 69.9812C163.016 69.9812 157.725 64.1895 157.725 54.3675C157.725 45.0527 162.566 38.7539 171.746 38.7539C173.36 38.7539 175.079 39.0475 176.031 39.3677V27.9177H183.651V67.7926C181.508 68.9937 177.275 69.9812 172.698 69.9812ZM176.058 45.1061C175.449 44.8125 173.889 44.5456 172.539 44.5456C167.804 44.5456 165.291 48.5224 165.291 54.2608C165.291 60.3728 167.857 63.976 172.539 63.976C173.889 63.976 175.423 63.6824 176.058 63.3621V45.1061Z" fill="#FDFDFC"/>
<path d="M203.916 69.9811C194.736 69.9811 189.048 63.1752 189.048 54.1539C189.048 45.106 194.762 38.3801 203.916 38.3801C213.095 38.3801 218.783 45.1327 218.783 54.1539C218.783 63.2019 213.095 69.9811 203.916 69.9811ZM203.916 44.3854C199.233 44.3854 196.27 48.0419 196.27 54.1006C196.27 60.1592 199.233 63.7623 203.916 63.7623C208.598 63.7623 211.561 60.1592 211.561 54.1006C211.561 48.0419 208.598 44.3854 203.916 44.3854Z" fill="#FDFDFC"/>
<path d="M152.963 53.6735C147.249 54.5009 140.08 55.6486 134.127 58.4777C134.736 62.0275 137.963 64.136 142.355 64.136C145.371 64.136 148.651 63.1752 150.767 62.0542L152.937 67.7925C150.423 69.0737 146.191 69.9811 141.852 69.9811C131.931 69.9811 126.72 63.4688 126.72 54.1539C126.72 44.8925 131.905 38.3801 140.635 38.3801C149.154 38.3801 153.545 44.5188 153.545 52.7661C153.545 53.1664 153.519 53.6201 152.963 53.6735ZM140.476 44.3854C136.482 44.8391 133.677 48.3622 133.624 53.1664C137.487 51.6184 142.381 50.2038 147.408 49.67C147.169 46.654 144.524 43.9317 140.476 44.3854Z" fill="#FDFDFC"/>
<path d="M90.4231 53.6735C84.7088 54.5009 77.5395 55.6486 71.5871 58.4777C72.1956 62.0275 75.4231 64.136 79.8146 64.136C82.8305 64.136 86.1109 63.1752 88.2273 62.0542L90.3966 67.7925C87.8834 69.0737 83.6506 69.9811 79.312 69.9811C69.3913 69.9811 64.1797 63.4688 64.1797 54.1539C64.1797 44.8925 69.3649 38.3801 78.095 38.3801C86.6136 38.3801 91.0051 44.5188 91.0051 52.7661C91.0051 53.1664 90.9786 53.6201 90.4231 53.6735ZM77.9098 44.3854C73.9151 44.8391 71.1109 48.3622 71.058 53.1664C74.9204 51.6184 79.8146 50.2038 84.8411 49.67C84.603 46.654 81.9839 43.9317 77.9098 44.3854Z" fill="#FDFDFC"/>
<path d="M43.4655 69.9813C38.8888 69.9813 33.8358 69.581 31.2168 70.2215V31.2541C34.4972 29.626 38.73 27.9712 43.3597 27.9712C53.5977 27.9712 58.3861 32.6419 58.3861 39.1009C58.3861 43.7717 55.3173 46.7877 52.0898 47.6951V47.8019C55.3173 48.8695 59.4443 52.446 59.4443 58.2377C59.4443 65.5508 53.9946 69.9813 43.4655 69.9813ZM44.5766 34.0031C42.8041 34.0031 40.1851 34.4302 38.6771 35.2042V47.4282C39.6824 46.9478 42.6718 46.3339 45.0263 45.9069C49.9205 44.9994 50.8993 41.8767 50.8993 39.8749C50.9258 36.1917 49.1533 34.0031 44.5766 34.0031ZM47.3015 51.4851C43.2009 50.8179 38.6771 53.5136 38.6771 53.5136V63.3088C39.7882 63.7091 41.7459 63.976 43.4126 63.976C48.9152 63.976 51.7194 61.5739 51.7194 57.3569C51.693 55.115 50.7671 52.0456 47.3015 51.4851Z" fill="#FDFDFC"/>
<path d="M220.424 44.0651C218.969 44.0651 217.805 42.8908 217.805 41.4228C217.805 39.9549 218.995 38.7805 220.424 38.7805C221.852 38.7805 223.043 39.9549 223.043 41.4228C223.043 42.8641 221.879 44.0651 220.424 44.0651ZM220.424 39.2076C219.207 39.2076 218.254 40.2218 218.254 41.4228C218.254 42.6239 219.207 43.6114 220.424 43.6114C221.641 43.6114 222.593 42.6239 222.593 41.4228C222.593 40.1951 221.641 39.2076 220.424 39.2076ZM220.953 42.8908L220.08 41.583H220V42.8908H219.524V39.9549C219.736 39.8481 220 39.7947 220.291 39.7947C221.006 39.7947 221.376 40.1951 221.376 40.6755C221.376 41.1559 221.059 41.4495 220.609 41.5296L221.561 42.8908H220.953ZM220.265 40.1951C220.159 40.1951 220.08 40.2218 220 40.2218V41.236H220.186C220.609 41.236 220.873 41.1025 220.873 40.6755C220.9 40.2752 220.556 40.1951 220.265 40.1951Z" fill="#FDFDFC"/>
</svg>
